<svg xmlns="http://www.w3.org/2000/svg" width="33.35" height="26.025" viewBox="0 0 33.35 26.025"><defs><style>.a{fill:#00427a;}</style></defs><g transform="translate(0 0)"><path class="a" d="M180.593,2827.346h-6.279a.977.977,0,0,0,0,1.955h6.279a.977.977,0,0,0,0-1.955Zm0,0" transform="translate(-160.779 -2803.276)"/><path class="a" d="M179.743,2819.358a3.069,3.069,0,0,0-4.115-4.114l-4.6-4.6a.977.977,0,0,0-1.382,1.382l4.6,4.6a3.068,3.068,0,0,0,4.114,4.114l1.083,1.083a.977.977,0,1,0,1.382-1.382Zm-2.748-.25a1.115,1.115,0,1,1,1.116-1.115,1.117,1.117,0,0,1-1.116,1.115Zm0,0" transform="translate(-160.32 -2801.318)"/><path class="a" d="M175.817,2800.142a16.676,16.676,0,0,0-14.44,25.013.976.976,0,0,0,1.334.356l2.719-1.57a.976.976,0,1,0-.977-1.691l-1.846,1.065a14.729,14.729,0,0,1-1.478-5.522h2.129a.977.977,0,0,0,0-1.954H161.13a14.6,14.6,0,0,1,1.48-5.52l1.843,1.064a.977.977,0,0,0,.977-1.693l-1.84-1.063a14.851,14.851,0,0,1,4.04-4.04l1.063,1.841a.977.977,0,0,0,1.693-.977l-1.064-1.843a14.622,14.622,0,0,1,5.52-1.48v2.129a.977.977,0,0,0,1.954,0v-2.129a14.622,14.622,0,0,1,5.519,1.48l-1.063,1.843a.977.977,0,0,0,1.693.977l1.063-1.841a14.851,14.851,0,0,1,4.04,4.04l-1.84,1.063a.977.977,0,1,0,.977,1.693l1.843-1.064a14.6,14.6,0,0,1,1.48,5.52h-2.129a.977.977,0,1,0,0,1.954h2.129a14.729,14.729,0,0,1-1.478,5.522l-1.846-1.066a.977.977,0,1,0-.977,1.692l2.719,1.57a.975.975,0,0,0,1.333-.356,16.674,16.674,0,0,0-14.44-25.013Zm0,0" transform="translate(-159.143 -2800.142)"/></g></svg>