<svg xmlns="http://www.w3.org/2000/svg" width="136.395" height="104.271" viewBox="0 0 136.395 104.271"><defs><style>.a{fill:#00427a;}</style></defs><path class="a" d="M1595.432,1624.312l14.78-6.094c2.637-1.046,5.3-2.16,7.935-3.32,1.842-.841,3.684-1.023,4.548,1.228s-.637,3.343-2.547,4.139q-15.6,6.457-30.992,12.87c-18.191,7.572-36.382,15.1-54.573,22.738a6.819,6.819,0,0,1-6.344-.25c-12.8-6.526-25.672-12.938-38.5-19.4-1.864-.955-4.115-1.864-2.8-4.547s3.365-1.592,5.366-.546l13.643,6.821c7.89,3.98,15.758,7.982,23.694,11.824a5.475,5.475,0,0,0,3.956.16c8.277-3.366,16.486-6.822,24.74-10.187a2.764,2.764,0,0,0,2.024-2.888V1631.7c-8.823,3.729-17.191,6.958-25.445,10.551a7.321,7.321,0,0,1-6.935-.227c-12.779-6.526-25.627-12.916-38.428-19.4a5.361,5.361,0,0,1-2.524-2.047c-.364-.819-.091-2.8.363-2.956a6.007,6.007,0,0,1,4.23-.2c7.594,3.593,15.075,7.436,22.6,11.211,5.116,2.569,10.187,5.252,15.394,7.685a5.59,5.59,0,0,0,3.979.182c8.3-3.3,16.486-6.776,24.763-10.119a2.773,2.773,0,0,0,2.046-3.228c-.114-1.638,0-3.275,0-5.435-1.319.478-2.319.8-3.3,1.2-7.617,3.161-15.212,6.3-22.739,9.55a6.3,6.3,0,0,1-5.843-.159c-12.984-6.571-25.854-12.961-38.815-19.4-.978-.477-2.229-1.069-2.615-1.933a3.5,3.5,0,0,1,.341-3.229,4,4,0,0,1,3.5-.477c5.32,2.433,10.505,5.139,15.735,7.754,7.617,3.8,15.189,7.686,22.875,11.369a5.8,5.8,0,0,0,4.184,0c7.594-3.024,15.075-6.435,22.738-9.323,3.206-1.228,4.548-2.887,3.866-6.071a24.888,24.888,0,0,1-.159-2.8c-1.228.455-2.274.819-3.275,1.228-7.549,3.138-15.075,6.412-22.738,9.346a7.6,7.6,0,0,1-5.435-.182q-19.782-9.653-39.338-19.715c-1.137-.614-2.66-2.16-2.637-3.206s1.5-2.524,2.8-3.024c28.264-11.96,56.71-23.853,85.11-35.813a6.185,6.185,0,0,1,5.708.25c12.983,6.571,26.126,12.984,39.087,19.578,1.365.682,3.161,2.433,3.161,3.433s-1.887,2.661-3.274,3.275c-6.822,3.069-13.689,6.071-20.67,8.731-2.865,1-4.229,2.456-3.684,5.549a21.892,21.892,0,0,1,0,3.319l4.093-1.637c5.958-2.478,11.961-5,17.9-7.413,1.955-.818,4.229-2.092,5.548.728s-1.16,3.706-3.229,4.548c-6.822,2.8-13.643,5.821-20.465,8.39-2.956,1.183-4.434,2.5-3.843,5.73a23.564,23.564,0,0,1,0,3.775l19.92-8.322,3.41-1.433c1.706-.727,3.343-.727,4.207,1.137s-.068,3.343-1.978,4.139l-17.032,7.117-3.41,1.41C1594.5,1617.627,1594.5,1617.627,1595.432,1624.312Zm-39.77-24.58c-.273-.432-.341-.751-.478-.751-11.074-5.548-22.147-11.1-33.289-16.531a4.367,4.367,0,0,0-3.115.16c-4.957,1.955-9.823,4.07-14.735,6.139l-7.663,3.252c10.255,5.184,20.033,9.868,29.56,15.007a11.1,11.1,0,0,0,11.37.5C1543.2,1604.575,1549.431,1602.324,1555.662,1599.732Zm33.63,25.149c.046-11.074.091-22.148-.136-33.221a4.1,4.1,0,0,0-1.819-2.979c-11.756-6.276-23.58-12.415-35.4-18.532a3.518,3.518,0,0,0-2.547-.409c-7.186,2.91-14.326,5.934-21.875,9.095l3.07,1.592c10.1,5.025,20.055,10.391,30.333,14.939,4.139,1.865,5.048,4.252,5.048,8.436-.182,10.755,0,21.511,0,32.721,7.686-3.184,15.053-6.208,22.352-9.368.546-.251.955-1.5.955-2.274Zm2.024-40.748a2.28,2.28,0,0,0,1.592.2c6.548-2.729,13.142-5.526,20.191-8.505-11.892-5.8-23.261-11.551-34.63-17.167a2.863,2.863,0,0,0-2-.341c-6.3,2.569-12.461,5.23-19.283,8.072,11.8,6.117,22.943,11.938,34.108,17.736Z" transform="translate(-1486.551 -1552.265)"/></svg>