<svg xmlns="http://www.w3.org/2000/svg" width="30.753" height="30.753" viewBox="0 0 30.753 30.753"><defs><style>.a{fill:#0c3f6a;}</style></defs><g transform="translate(0)"><path class="a" d="M26.248,0a4.505,4.505,0,0,0-.9,8.919v4.656a.9.9,0,0,1-.9.9H16.278V8.919a4.5,4.5,0,1,0-1.8,0v5.557H5.406V8.919a4.5,4.5,0,1,0-1.8,0V21.834a4.5,4.5,0,1,0,1.8,0V16.278h9.07v5.557a4.5,4.5,0,1,0,1.8,0V16.278h8.169a2.706,2.706,0,0,0,2.7-2.7V8.919A4.505,4.505,0,0,0,26.248,0ZM7.208,26.248a2.7,2.7,0,1,1-2.7-2.7A2.706,2.706,0,0,1,7.208,26.248ZM4.5,7.208a2.7,2.7,0,1,1,2.7-2.7A2.706,2.706,0,0,1,4.5,7.208Zm13.575,19.04a2.7,2.7,0,1,1-2.7-2.7A2.706,2.706,0,0,1,18.079,26.248Zm-2.7-19.04a2.7,2.7,0,1,1,2.7-2.7A2.706,2.706,0,0,1,15.377,7.208Zm10.872,0a2.7,2.7,0,1,1,2.7-2.7A2.706,2.706,0,0,1,26.248,7.208Z"/></g></svg>