<svg xmlns="http://www.w3.org/2000/svg" width="133.009" height="104.872" viewBox="0 0 133.009 104.872"><defs><style>.a{fill:#00427a;}</style></defs><g transform="translate(-343.723 -1552.056)"><path class="a" d="M476.732,1575.252v34.2h0a5.724,5.724,0,0,1-5.747,5.7h-9.108l-40.457,40.125-.591.509a5.744,5.744,0,0,1-3.463,1.145h-49.81a17.1,17.1,0,1,1,.014-34.2h29.221a17,17,0,0,1,.282-23.892l27.707-27.607a5.77,5.77,0,0,1,4.079-1.679h42.152A5.724,5.724,0,0,1,476.732,1575.252Zm-11.468,28.6v-22.9h-33.89l-26.066,25.953a5.787,5.787,0,0,0-.569.55,5.668,5.668,0,0,0,.459,8.048,5.782,5.782,0,0,0,8.115-.456l9.62-9.542a5.771,5.771,0,0,1,9.283,0,5.67,5.67,0,0,1-1.253,7.964l-19.036,18.982a5.768,5.768,0,0,1-4.053,1.679h-40.31a5.7,5.7,0,1,0,.006,11.4h47.436l40.458-40.1a5.768,5.768,0,0,1,4.053-1.679h5.747Z"/><path class="a" d="M358.077,1590.061l-12.647-12.544a5.68,5.68,0,0,1-.039-8.079,5.794,5.794,0,0,1,8.145-.038l8.6,8.5,24.372-24.172h0a5.784,5.784,0,0,1,8.133,0,5.669,5.669,0,0,1,0,8.065l-28.452,28.193a5.828,5.828,0,0,1-8.107.076Z"/></g></svg>