<svg xmlns="http://www.w3.org/2000/svg" width="228.244" height="145.93" viewBox="0 0 228.244 145.93"><defs><style>.a{fill:#fff;}.b{fill:#f8f8f8;}.c,.d{fill:none;}.c{stroke:#e22427;stroke-linecap:round;stroke-miterlimit:10;stroke-width:6px;}.e{fill:#e22427;}</style></defs><g transform="translate(-816.086 -306.03)"><g transform="translate(816.086 306.03)"><g transform="translate(0 0)"><path class="a" d="M18.582,38.2a10.082,10.082,0,0,0,0,20.164,10.082,10.082,0,0,0,0-20.164Zm0,13.232a3.151,3.151,0,1,1,0-6.3,2.977,2.977,0,0,1,3.151,3.151A3.157,3.157,0,0,1,18.582,51.432Z" transform="translate(18.28 33.948)"/><path class="a" d="M55.182,38.2A10.082,10.082,0,1,0,65.264,48.282,9.953,9.953,0,0,0,55.182,38.2Zm0,13.232a3.151,3.151,0,1,1,3.151-3.151A3.157,3.157,0,0,1,55.182,51.432Z" transform="translate(96.991 33.948)"/><path class="a" d="M193.13,45.546h-1.89c-2.205-13.232-16.7-30.246-37.807-30.246H81.915c-18.9,0-35.286,28.67-39.382,36.547H24.259A24.27,24.27,0,0,0,0,76.106V93.749a6.993,6.993,0,0,0,6.931,6.931h7.246a22.938,22.938,0,0,0,45.368,0h69.943a22.938,22.938,0,0,0,45.368,0h9.767a6.993,6.993,0,0,0,6.931-6.931V77.366h1.575a8.471,8.471,0,0,0,8.507-8.507V54.052A8.471,8.471,0,0,0,193.13,45.546ZM36.862,113.283A16.068,16.068,0,1,1,52.93,97.215,15.935,15.935,0,0,1,36.862,113.283Zm115.311,0a16.068,16.068,0,1,1,16.068-16.068A15.935,15.935,0,0,1,152.173,113.283Zm32.451-19.219h-9.767a22.938,22.938,0,0,0-45.368,0H59.546a22.938,22.938,0,0,0-45.368,0H6.931V76.421A17.482,17.482,0,0,1,24.259,59.093H44.423a3.465,3.465,0,0,0,3.151-1.89C52.3,47.436,67.737,22.546,81.915,22.546h71.2c19.534,0,31.191,17.328,31.191,26.78V94.064Zm10.082-25.2a1.488,1.488,0,0,1-1.575,1.575h-1.575V52.477h1.575a1.488,1.488,0,0,1,1.575,1.575Z" transform="translate(0 -15.3)"/><path class="a" d="M73,19.9H49.683C40.547,19.9,31.725,24.311,27,31.872L19.123,43.844a3.413,3.413,0,0,0,0,3.466,3.465,3.465,0,0,0,3.151,1.89H73a3.5,3.5,0,0,0,3.466-3.466V23.366A3.5,3.5,0,0,0,73,19.9ZM69.532,42.269H28.574l4.411-6.616a19.891,19.891,0,0,1,16.7-8.822H69.532Z" transform="translate(40.108 -5.407)"/><path class="a" d="M62.714,19.9H42.866A3.5,3.5,0,0,0,39.4,23.366V45.735A3.5,3.5,0,0,0,42.866,49.2H86.659a3.5,3.5,0,0,0,3.466-3.466C90.439,31.557,78.152,19.9,62.714,19.9ZM46.646,42.269V26.831H63.029c10.082,0,18.588,6.616,20.164,15.438Z" transform="translate(84.733 -5.407)"/></g></g><g transform="translate(950.859 358.487)"><circle class="b" cx="45.236" cy="45.236" r="45.236" transform="translate(0 0)"/><g transform="translate(0 0.002)"><circle class="c" cx="45.236" cy="45.236" r="45.236" transform="translate(0 0)"/><rect class="d" width="90.471" height="90.471" transform="translate(0 0)"/><path class="e" d="M24.114,19.372a.654.654,0,0,1-.692-.7V13.6a.655.655,0,0,1,.692-.7h4.728a.658.658,0,0,1,.7.7v5.075a.659.659,0,0,1-.7.7Zm.142,40.813a.655.655,0,0,1-.694-.694V27.577a.658.658,0,0,1,.694-.7H28.7a.657.657,0,0,1,.7.7V59.491a.656.656,0,0,1-.7.694Z" transform="translate(19.435 8.578)"/></g></g></g></svg>