<svg xmlns="http://www.w3.org/2000/svg" width="166.33" height="168.912" viewBox="0 0 166.33 168.912"><defs><style>.a{fill:#fff;}.b{fill:#f8f8f8;}.c,.d{fill:none;}.c{stroke:#e22427;stroke-linecap:round;stroke-miterlimit:10;stroke-width:6px;}.e{fill:#e22427;}</style></defs><g transform="translate(0)"><g transform="translate(0 0)"><path class="a" d="M30,61.489A46.489,46.489,0,1,0,76.489,15,46.626,46.626,0,0,0,30,61.489Zm82.04,0a35.551,35.551,0,1,1-35.55-35.551A35.655,35.655,0,0,1,112.04,61.489Z" transform="translate(-14.549 -15)"/><path class="a" d="M26.494,128.363a76.584,76.584,0,0,1,108.292,0l7.794-7.794a87.808,87.808,0,0,0-123.88,0Z" transform="translate(-18.7 14.386)"/></g><g transform="translate(72.859 75.439)"><circle class="b" cx="45.236" cy="45.236" r="45.236" transform="translate(0 0)"/><g transform="translate(0 0.002)"><circle class="c" cx="45.236" cy="45.236" r="45.236" transform="translate(0 0)"/><rect class="d" width="90.471" height="90.471" transform="translate(0 0)"/><path class="e" d="M24.114,19.372a.654.654,0,0,1-.692-.7V13.6a.655.655,0,0,1,.692-.7h4.728a.658.658,0,0,1,.7.7v5.075a.659.659,0,0,1-.7.7Zm.142,40.813a.655.655,0,0,1-.694-.694V27.577a.658.658,0,0,1,.694-.7H28.7a.657.657,0,0,1,.7.7V59.491a.656.656,0,0,1-.7.694Z" transform="translate(19.435 8.578)"/></g></g></g></svg>