<svg xmlns="http://www.w3.org/2000/svg" width="122.07" height="70.525" viewBox="0 0 122.07 70.525"><defs><style>.a{fill:#00427a;}</style></defs><g transform="translate(-910.702 -1568.734)"><path class="a" d="M1031.774,1593.127a3.646,3.646,0,0,1-.141,5.154l-23.451,23.254a3.572,3.572,0,0,1-2.464,1.084,3.67,3.67,0,0,1-2.463-6.257l17-17H959.284a3.7,3.7,0,1,1,0-7.39h60.968l-17-17a3.658,3.658,0,1,1,5.173-5.173l23.229,23.2Q1031.717,1593.067,1031.774,1593.127Z"/><path class="a" d="M911.749,1614.966a3.646,3.646,0,0,1,.042-5.156l23.525-23.229a3.568,3.568,0,0,1,2.463-1.084,3.671,3.671,0,0,1,2.464,6.257l-17.1,16.873h60.968a3.7,3.7,0,0,1,0,7.391H923.147l17,17h0a3.658,3.658,0,1,1-5.173,5.173l-23.205-23.2Z"/></g></svg>